<svg viewBox="0 0 415.42 264.35" xmlns="http://www.w3.org/2000/svg"><path d="m0 .16h415v263.84h-415z" fill="#f44f85" fill-rule="evenodd"/><path d="m154 191.4c0 2-1 5 0 7s1 4 2 9 5 2 5-1 1-7 4-9 3-3 3-4 4-3 4-4 3 0 2 1 2 6 4 9 3 3 5 2 0-9 1-11 3-3 5-5 2-4 4-5 10-8 16-11 6-5 7-8-4-13-4-15 3-1 3-2-8-13-9-14 2-4 2-5 0-5 2-7 0-3 0-5-4-6-5-8 1-1 2-2 0-1 1-3a4.78 4.78 0 0 0 0-4 12.2 12.2 0 0 1 -2-3 2.19 2.19 0 0 0 -3-1s-3-1-4 0-2 1-3 2-1 3-1 4-3 0-5 0-5-4-7-6a70 70 0 0 0 -9-7l-13.9-9.27c-1.05-.3-1.06-.71-1.06-.71l1.06.71a11.47 11.47 0 0 0 2.93.29 8.94 8.94 0 0 0 9-9c0-5-4-9-10-9s-8 7-8 7-1 0-1 3 0 3 1 5l2 4c1 2 2 2 3 3s10 8 11 10 2 2 3 3 10 9 10 9a7.68 7.68 0 0 0 1 3c1 2 0 4 0 6s2 8 4 11 1 4 0 5-2 4-3 7-2 11-1 11 1 1 1 3-3 4-4 6-2 3-1 4 5 1 5 1a22.76 22.76 0 0 1 1 4c0 1-4 4-6.61 5.86s-7.42 10.15-10.42 13.14-7 6-8 6-5-1-6 0-1 .98-1 2.98zm43.88-25.93s2-4 2-5 2-2 2-2l1 3z" fill="#a81148" fill-rule="evenodd" opacity=".28"/><g fill="none" stroke="#fff" stroke-miterlimit="10" stroke-width="2"><path d="m116.22 228.15v-81.15s35.78-94 133.72-94 132.39 94 132.39 94v81.16z"/><path d="m197.88 120.91h108.1v107.24h-96.14-12.07z"/><path d="m215.52 120.91v107.24h73.22v-107.24s.92-35.95-36-35.95c-37.22.04-37.22 35.95-37.22 35.95z"/></g><g fill-rule="evenodd"><path d="m276.5 36.94h-7l-3.5 6.06 3.5 6.06h7l3.5-6.06z" fill="#ff9515"/><path d="m263.51 46.11h-7.76l-3.88 6.72 3.88 6.71h7.76l3.88-6.71z" fill="#ffac1a"/><path d="m379.74 94.02h-6.74l-3.37 5.83 3.37 5.84h6.74l3.37-5.84z" fill="#ff7c24"/><path d="m383.73 124.08h-5.74l-2.87 4.97 2.87 4.97h5.74l2.87-4.97z" fill="#ffe12e"/><path d="m110.73 143.08h-5.74l-2.87 4.97 2.87 4.97h5.74l2.86-4.97z" fill="#ffe12e"/><path d="m360.59 97.41h-6.8l-3.4 5.89 3.4 5.89h6.8l3.4-5.89z" fill="#daee7e"/><path d="m250.98 27.5h-6.04l-3.01 5.22 3.01 5.23h6.04l3.01-5.23z" fill="#ffac1a"/><path d="m241.03 41.06h-7.35l-3.68 6.37 3.68 6.37h7.35l3.67-6.37z" fill="#ffdb2c"/><path d="m117.84 116.35h-7.31l-3.66 6.34 3.66 6.33h7.31l3.66-6.33z" fill="#ff9515"/><path d="m132.65 107.06h-4.7l-2.35 4.07 2.35 4.07h4.7l2.35-4.07z" fill="#68ead4"/><path d="m218.71 31.88h-5.81l-2.9 5.03 2.9 5.03h5.81l2.9-5.03z" fill="#f5e47a"/><path d="m313.83 53.02h-7.12l-3.56 6.17 3.56 6.17h7.12l3.56-6.17z" fill="#ffdb2c"/><path d="m292.36 36.28h-5.3l-2.64 4.58 2.64 4.58h5.3l2.64-4.58z" fill="#ffdb2c"/><path d="m245.81 196.64h-6.37l-3.19 5.52 3.19 5.52h6.37l3.19-5.52z" fill="#ffdd36"/><path d="m239.75 183.38h-6.5l-3.25 5.63 3.25 5.62h6.5l3.25-5.62z" fill="#f5e47a"/><path d="m287.08 53.76h-5.83l-2.92 5.06 2.92 5.05h5.83l2.92-5.05z" fill="#ffdb2c"/><path d="m226.09 50.99h-5.81l-2.9 5.03 2.9 5.04h5.81l2.91-5.04z" fill="#e0e984"/><path d="m330.8 61.88h-4.92l-2.46 4.27 2.46 4.26h4.92l2.46-4.26z" fill="#cee382"/><path d="m334.66 76.59h-4.86l-2.43 4.2 2.43 4.21h4.86l2.43-4.21z" fill="#40d3ac"/><path d="m354.13 84.02h-5.56l-2.78 4.81 2.78 4.82h5.56l2.78-4.82z" fill="#68d8d8"/><path d="m348.38 70.02h-5.06l-2.53 4.38 2.53 4.39h5.06l2.53-4.39z" fill="#40d3ac"/><path d="m325.22 46.1h-5.56l-2.78 4.82 2.78 4.81h5.56l2.78-4.81z" fill="#68d8d8"/><path d="m160.88 70.39h5.77l2.88 4.99-2.88 5h-5.77l-2.88-5z" fill="#daee7e"/><path d="m125.79 77.29h6.04l3.01 5.23-3.01 5.23h-6.04l-3.01-5.23z" fill="#40d3ac"/><path d="m141.73 86.95h6.7l3.36 5.81-3.36 5.8h-6.7l-3.35-5.8z" fill="#40d3ac"/><path d="m182.24 58.28h4.36l2.19 3.78-2.19 3.79h-4.36l-2.19-3.79z" fill="#cee382"/><path d="m164.58 51.2h5.14l2.57 4.44-2.57 4.45h-5.14l-2.57-4.45z" fill="#cee382"/><path d="m174.26 66.46h5.78l2.89 5.01-2.89 5h-5.78l-2.89-5z" fill="#68d8d8"/><path d="m202.77 39.47h-6.51l-3.26 5.64 3.26 5.64h6.51l3.26-5.64z" fill="#e0e984"/><path d="m207.25 53.77h-6.87l-3.44 5.95 3.44 5.96h6.87l3.44-5.96z" fill="#40d3ac"/><path d="m261.57 199.39h-6.86l-3.43 5.94 3.43 5.93h6.86l3.43-5.93z" fill="#f89b5b"/><path d="m251.65 201.97h-8.11l-4.06 7.02 4.06 7.03h8.11l4.06-7.03z" fill="#ff933b"/><path d="m259.56 188.02h-6.62l-3.31 5.73 3.31 5.73h6.62l3.31-5.73z" fill="#f89349"/><path d="m235.97 202.02h-7.07l-3.53 6.11 3.53 6.12h7.07l3.53-6.12z" fill="#f89349"/><g fill="#ffdd36"><path d="m266.41 186.19h-4.94l-2.47 4.28 2.47 4.28h4.94l2.47-4.28z"/><path d="m279.5 194.29h-8.33l-4.17 7.22 4.17 7.22h8.33l4.17-7.22z"/><path d="m267.25 203.21h-7.5l-3.75 6.49 3.75 6.5h7.5l3.75-6.5z"/></g><path d="m243.07 169.2h8.14l4.07 7.05-4.07 7.05h-8.14l-4.07-7.05z" fill="#daee7e"/><path d="m224.78 183.4h7.55l3.78 6.54-3.78 6.55h-7.55l-3.78-6.55z" fill="#68d8d8"/><path d="m225.4 138.51h5.17l2.59 4.48-2.59 4.48h-5.17l-2.58-4.48z" fill="#a9ce95"/><path d="m252.53 100.38h5.65l2.82 4.89-2.82 4.89h-5.65l-2.82-4.89z" fill="#40d3ac"/><path d="m265.61 102.69h6.93l3.46 6-3.46 6h-6.93l-3.47-6z" fill="#10bbe8"/><path d="m303.05 96.7h5.17l2.58 4.48-2.58 4.48h-5.17l-2.59-4.48z" fill="#a9ce95"/><path d="m282.64 86.88h6.24l3.12 5.4-3.12 5.41h-6.24l-3.13-5.41z" fill="#40d3ac"/><path d="m328.12 124.58h5.44l2.73 4.72-2.73 4.72h-5.44l-2.73-4.72z" fill="#a9ce95"/><path d="m236.29 77.31h4.58l2.29 3.97-2.29 3.97h-4.58l-2.29-3.97z" fill="#40d3ac"/><path d="m212.97 77.29h4.19l2.1 3.63-2.1 3.64h-4.19l-2.1-3.64z" fill="#68d8d8"/><path d="m236.44 100.64h4.63l2.31 4-2.31 4.01h-4.63l-2.31-4.01z" fill="#10bbe8"/><path d="m234.84 91.02h4.63l2.31 4.01-2.31 4h-4.63l-2.31-4z" fill="#40d3ac"/><path d="m232.34 111.64h7.11l3.55 6.15-3.55 6.15h-7.11l-3.55-6.15z" fill="#40d3ac"/><path d="m251.85 87.75h4.31l2.15 3.73-2.15 3.73h-4.31l-2.16-3.73z" fill="#68d8d8"/><path d="m263.79 80.28h4.31l2.16 3.73-2.16 3.74h-4.31l-2.15-3.74z" fill="#40d3ac"/><path d="m240 131.16h6l3 5.2-3 5.19h-6l-3-5.19z" fill="#40d3ac"/><path d="m269.9 125.07h5.81l2.91 5.03-2.91 5.03h-5.81l-2.9-5.03z" fill="#10bbe8"/><path d="m256.38 138.33h4.41l2.21 3.83-2.21 3.82h-4.41l-2.21-3.82z" fill="#40d3ac"/><path d="m259.29 165.6h5.43l2.72 4.71-2.72 4.71h-5.43l-2.72-4.71z" fill="#cadf8c"/><path d="m278.68 155.44h4.88l2.44 4.23-2.44 4.23h-4.88l-2.44-4.23z" fill="#cadf8c"/><path d="m258.44 148.5h6.07l3.04 5.26-3.04 5.26h-6.07l-3.04-5.26z" fill="#c2de88"/><path d="m338.97 178.83h5.35l2.68 4.63-2.68 4.64h-5.35l-2.67-4.64z" fill="#68d8d8"/><path d="m330.62 198.25h5.64l2.82 4.88-2.82 4.89h-5.64l-2.82-4.89z" fill="#c2de88"/><path d="m324.74 178.83h5.49l2.74 4.75-2.74 4.75h-5.49l-2.74-4.75z" fill="#40d3ac"/><path d="m306.33 174.81h5.78l2.89 5.01-2.89 5h-5.78l-2.88-5z" fill="#40d3ac"/><path d="m361.45 201.2h4.31l2.16 3.73-2.16 3.73h-4.31l-2.15-3.73z" fill="#bbdb8f"/><path d="m353.62 158.02h5.34l2.67 4.63-2.67 4.62h-5.34l-2.68-4.62z" fill="#40d3ac"/><path d="m344.02 136.43h5.32l2.66 4.61-2.66 4.61h-5.32l-2.66-4.61z" fill="#a9cd99"/><path d="m332.86 141.06h5.73l2.86 4.96-2.86 4.96h-5.73l-2.86-4.96z" fill="#a9cd99"/><path d="m274.45 182.22h4.94l2.47 4.27-2.47 4.28h-4.94l-2.47-4.28z" fill="#cee382"/><path d="m260 177.02h6l3 5.2-3 5.19h-6l-3-5.19z" fill="#cee382"/><path d="m177.94 154.02h-5.71l-2.85 4.94 2.85 4.94h5.71l2.85-4.94z" fill="#ffdd36"/><path d="m343.19 112.02h-6.68l-3.33 5.78 3.33 5.78h6.68l3.33-5.78z" fill="#ecf18f"/><path d="m148.74 139.91h-4.37l-2.18 3.78 2.18 3.78h4.37l2.18-3.78z" fill="#fbdb6f"/><path d="m181.7 112.08h5.41l2.71 4.68-2.71 4.68h-5.41l-2.7-4.68z" fill="#cee382"/><path d="m159.46 125.32h5.03l2.51 4.36-2.51 4.35h-5.03l-2.52-4.35z" fill="#cee382"/><path d="m147.7 172.85h5.29l2.64 4.59-2.64 4.58h-5.29l-2.65-4.58z" fill="#68d8d8"/><path d="m163.8 190.32h5.47l2.73 4.73-2.73 4.74h-5.47l-2.74-4.74z" fill="#40d3ac"/><path d="m279.53 174.35h4.31l2.16 3.73-2.16 3.73h-4.31l-2.15-3.73z" fill="#cee382"/><path d="m242.27 153.39h6.53l3.27 5.66-3.27 5.66h-6.53l-3.27-5.66z" fill="#68d8d8"/><path d="m252.56 185.99h-6.36l-3.19 5.51 3.19 5.52h6.36l3.19-5.52z" fill="#ffdd36"/><path d="m303.81 66.36h-6.73l-3.37 5.83 3.37 5.83h6.73l3.37-5.83z" fill="#68d8d8"/><path d="m24 226v-50.44a21.29 21.29 0 0 0 8.08-12.56 64.85 64.85 0 0 0 1.4-13.67h10.52s-.31 15.76 13 15.76 13-15.41 13-15.41h10.52s-.45 9 1.76 15.06a30.25 30.25 0 0 0 7.72 11.17v50.09z" fill="#fff"/><path d="m135.65 201a27.87 27.87 0 0 1 -11 37.63 27.36 27.36 0 0 1 -37.29-11.1 27.87 27.87 0 0 1 11-37.63 27.36 27.36 0 0 1 37.29 11.1z" fill="#ffbf31"/><path d="m137.83 214.63c-8.74-8.76-16.52-7.08-20-13.62a100.6 100.6 0 0 1 16.92-3.73c-.61-.78-1.25-1.52-1.92-2.23a98.18 98.18 0 0 0 -16.06 3.57 14 14 0 0 1 .63-11.87 27 27 0 0 0 -3.11-.39 18 18 0 0 0 -.23 13.19 55.81 55.81 0 0 0 -6.29 2.73l-7.21-13.35c-.56.26-1.12.54-1.67.84l-.64.37 7.23 13.4a49.66 49.66 0 0 0 -5.88 4.22 14 14 0 0 0 -11.89-6.76 30.25 30.25 0 0 0 -1.42 3c4.5-.31 8.54 1.06 11.36 5.5a98.12 98.12 0 0 0 -12.25 13.64c.27.9.59 1.79.95 2.67a98.57 98.57 0 0 1 12.52-14c2.35 5.38-1.46 14.36-.51 21.39.32 2.41.78 4.77 1.25 7.06a27.2 27.2 0 0 0 2.87 1.27 63.07 63.07 0 0 1 -1.69-10.77c-.46-7.68 2.94-14.65.12-20.71a46.2 46.2 0 0 1 5.87-4.17l18.57 34.37.66-.35c.55-.3 1.09-.62 1.61-1l-18.55-34.33a57.35 57.35 0 0 1 6.12-2.65c4.42 8.2 11.9 6.14 19.72 13.66 1.75 1.68 3.52 3.38 5.28 5a27.5 27.5 0 0 0 .48-3.13z" fill="#f44f85"/><path d="m27 179.9a35.36 35.36 0 0 0 8.06-11.45c3.53-8.82 2.64-14.45 2.64-14.45h2.63s2.67 15.35 16.31 15.35 17-15.33 17-15.33h2.62a37.43 37.43 0 0 0 3.08 14.87c2.65 5.74 8.06 11 8.06 11v2.79s-6.06-6.17-9.26-12.47c-4.17-8.2-3.53-13.65-3.53-13.65s-3.61 14.44-17.61 14.44c-14.72 0-17.65-14.83-17.65-14.83a29.45 29.45 0 0 1 -3.53 14.91 45.14 45.14 0 0 1 -8.82 11.61z" fill="#0cc1b8"/></g><text fill="#00b2a9" font-family="Consolas-Bold, Consolas" font-size="21" font-weight="700" transform="translate(40 204.52)">NBA</text></svg>