<svg viewBox="0 0 415.42 264.35" xmlns="http://www.w3.org/2000/svg"><g fill-rule="evenodd"><path d="m0 .16h415v263.84h-415z" fill="#07bcff"/><path d="m415 155.15v-39.81h-2.69v-21.15h-2.7v-2.48h-13.46v2.48h-5.38l1.34 2.49v11.2h-20.19v1.24l1.34 1.24v14.93h-4v-49.76h-9.46v-3.73l-2.69-2.48h-4v2.48h-5.39v3.73h-4v32.35h-4.94v-38.56l3.14-2.91h-7.63v-20.73l1.35-2.49h-5.39l-1.41-1.19h-1.35l-1.35-16.17-1.34 16.17h-1.35l-1.35 1.24h-4.88l.85 2.49v19.9h-2.7v1.25h-3.11v1.43l1.74 1.01v51h-4v-33.9l-4-.93-2.69-3.11h-17.56l-3 2.8-3.7.31v41.05h-4v-30.93h-6.42v-7.61h-12.49v28.61h-5.34v-72.2l-17.55-12.41-10.77 12.44v72.14h-5.39v-32.34h1.35l1.34-3.73h-4v-2.51h-8.78v2.49h-14.14v2.51h2.69v41.05h-5.38v-16.17l3.36-3.11v-4.36h-19.53v-12.41h4v-3.76h-6.73v-3.73h-12.07v3.65h-9.42v2.57h4v21.15h-9.43v-59.71l-28.23 12.44v62.19h-5.39v-14.92h-8.07v26.12h-14.81v-43.54h-33.66v48.54h-42.19v16.18s403-.18 403-.03z" fill="#00a6ef" opacity=".36"/><path d="m0 155.59v-42.31h3v-22.47h3v-2.65h15v2.65h6l-1.5 2.64v11.9h22.42v1.32l-1.5 1.33v15.87h4.5v-52.87h10.48v-4l3-2.64h4.5v2.64h6v4h4.49v34.37h5.49v-41l-3.49-3.09h8.48v-22l-1.51-2.68h6l1.49-1.32h1.5l1.5-17.19 1.5 17.19h1.49l1.5 1.32h5.44l-1 2.65v21.15h3v1.32h3.46v1.53l-2 1.12v54.2h4.49v-36l4.49-1 3-3.3h19.46l3.37 3 4.12.33v43.63h4.49v-32.92h7.15v-8.11h13.82v30.4h5.94v-76.71l19.6-13.19v7.94l12 5.28v76.68h6v-34.37h-1.5l-1.5-4h4.5v-2.61h9.73v2.64h15.7v2.65h-3v43.63h6v-17.19l-3.75-3.35v-4.58h21.71v-13.22h-4.49v-4h7.49v-4h13.47v3.88h10.47v2.73h-4.5v22.48h10.5v-63.4l31.45 13.22v66.1h6v-15.86h9v27.76h16.45v-46.27h37.44v51.56h13.66v17.19s-415-.19-415 0z" fill="#00a6ef"/><path d="m309.82 89.59h-92.76v6.53h7.19v59.03h78.15v-59.03h7.42z" fill="#f3663a"/><path d="m273.44 75.15h-2v12.85h.25v.31h7.57v-2h-5.8zm10.48 11.2v-11.2h-2v12.85h.22v.31h7.57v-2zm-37.61-1.09-4.6-10.11h-2.28v12.85h2v-8.66l3.73 8.44v.07h2.33v-.07l3.62-8.36v8.58h2v-12.85h-2.28zm14.69-10.11-5.49 12.7h2.28l1.71-4h5.5l1.74 4h2.28l-5.6-12.7zm-.64 6.75 1.89-4.37 1.92 4.37z" fill="#f3663a"/><path d="m248.61 155.12h30v-35.31h-30zm-24.19-59.12v2h77.58v-2z" fill="#e2522b"/><path d="m223.09 121.27a4.13 4.13 0 1 0 8.26 0v-15.85h-8.26zm8.46 0a4.12 4.12 0 0 0 7.88 1.72 4.12 4.12 0 0 0 7.88-1.72v-15.85h-15.76zm15.95-15.85v15.85a4.13 4.13 0 0 0 7.86 1.77 4.12 4.12 0 0 0 7.85-1.77 4.12 4.12 0 0 0 8.15.91 4.11 4.11 0 0 0 7.95.32 4.12 4.12 0 0 0 8.06-1.23 4.13 4.13 0 0 0 8.16.91 4.12 4.12 0 0 0 8.15-.91v-15.85z" fill="#fece6a"/><path d="m263.21 121.27a4.13 4.13 0 1 0 8.26 0v-15.85h-8.26zm-15.71 0a4.14 4.14 0 1 0 8.27 0v-15.85h-8.27zm-15.95 0a4.13 4.13 0 1 0 8.26 0v-15.85h-8.26zm63.87-15.85v15.85a4.13 4.13 0 1 0 8.26 0v-15.85zm-16.31 15.85a4.13 4.13 0 1 0 8.26 0v-15.85h-8.26z" fill="#fff"/></g><circle cx="144.74" cy="110.32" fill="#07bcff" r="12.81"/><rect fill="#545a5b" height="20.49" rx="2.5" transform="matrix(.98407174 -.1777718 .1777718 .98407174 -19.8 19.13)" width="6.4" x="93.64" y="109.81"/><rect fill="#545a5b" height="20.49" rx="2.5" transform="matrix(.98407174 -.1777718 .1777718 .98407174 -23.99 20.28)" width="6.4" x="97.96" y="133.76"/><path d="m215.55 233.19-28.65-158.55c-.2-1.12-1-1.91-1.77-1.77l-93 16.79c-.78.14-1.24 1.16-1 2.28l28.62 158.56c.2 1.11 1 1.9 1.78 1.76l93-16.79c.75-.14 1.22-1.16 1.02-2.28zm-13.17-22.87-75.1 13.57a1.17 1.17 0 0 1 -1.35-.95l-21.35-118.19a1.17 1.17 0 0 1 .93-1.37l75.1-13.56a1.16 1.16 0 0 1 1.35 1l21.35 118.18a1.16 1.16 0 0 1 -.93 1.32z" fill="#374246" fill-rule="evenodd"/><path d="m100 100 80.16-14.48a1 1 0 0 1 1.08.9l22.36 123.89a1 1 0 0 1 -.68 1.22l-80.17 14.47a1 1 0 0 1 -1.08-.9l-22.38-123.92a1 1 0 0 1 .71-1.18z" fill="#e9fdff" fill-rule="evenodd"/><circle cx="165.51" cy="230" fill="#d5f0f7" opacity=".32" r="6.4"/><circle cx="127.18" cy="89.84" fill="#d5f0f7" opacity=".32" r="1.28"/><path d="m134.56 130.64-2.11-3.64-.7 4.15-4.2.87 3.8 1.91-.48 4.17 3-3 3.89 1.72-1.91-3.74 2.89-3.12zm14.69-2.64-2.1-3.64-.71 4.15-4.19.86 3.8 1.91-.49 4.18 3.05-3 3.9 1.71-1.92-3.74 2.9-3.11zm18.5-3.23-4.23.65-2.11-3.64-.7 4.15-4.2.87 3.8 1.9-.48 4.18 3-3 3.89 1.72-1.91-3.75z" fill="#ff7f29"/><path d="m185.93 162.91a.46.46 0 0 0 -.53-.37l-62.12 11.23a.45.45 0 0 0 -.37.53l4.47 24.76a.46.46 0 0 0 .53.37l62.09-11.23a.45.45 0 0 0 .36-.53zm-1.06-5.85-.24-1.35a.46.46 0 0 0 -.53-.37l-62.1 11.22a.46.46 0 0 0 -.37.53l.24 1.36a.45.45 0 0 0 .53.36l62.13-11.22a.45.45 0 0 0 .34-.53zm-1.13-6.3-.25-1.35a.45.45 0 0 0 -.49-.41l-62.12 11.22a.45.45 0 0 0 -.37.53l.24 1.35a.46.46 0 0 0 .53.37l62.13-11.22a.46.46 0 0 0 .33-.49zm-32.9-.1-.24-1.35a.45.45 0 0 0 -.53-.37l-30.29 5.47a.46.46 0 0 0 -.37.53l.25 1.35a.46.46 0 0 0 .53.37l30.28-5.47a.46.46 0 0 0 .37-.53z" fill="#b5dbea" fill-rule="evenodd"/><path d="m153.83 118.39-2.57-7.19a1 1 0 0 0 -1.17-.81l-1 .19a4.55 4.55 0 0 0 -8.84 1.59l-1 .19a1 1 0 0 0 -.81 1.16l.1 7.63c0 1.32.56 1.69 1.8 1.46l12.34-2.23c.97-.17 1.59-.69 1.15-1.99zm-2.77-.91-1.06-6.16zm-6.83-8.79a3.91 3.91 0 0 1 4.19 2.56l-7.21 1.3a3.91 3.91 0 0 1 3.02-3.86z" fill="#a4cfdd" fill-rule="evenodd"/><rect fill="#fff" height="2.56" opacity=".21" rx="1" transform="matrix(.98407174 -.1777718 .1777718 .98407174 -13.34 26.24)" width="17.93" x="130.81" y="86.29"/><g fill-rule="evenodd"><path d="m194.81 228.88s-.05-54.45-.05-62.58c0-6.26 2.55-8.76 7.56-8.76 3.24 0 6.26 2.5 6.26 8.76 0 1.19.22 7.28.48 15.36.35 11 .77 23.44.77 23.44v-18.77s0-8.77 7.51-8.77c5 0 7.51 3.76 7.51 10v17.54-12.52s0-8.76 7.51-8.76c5 0 7.51 3.76 7.51 8.76v12.52-7.51c0-2.5 2.5-7.51 7.51-7.51 3.76 0 7.51 3.76 7.51 8.76v28.79c0 15-10 32.55-32.54 32.55-18.78 0-23.21-5.64-28.17-10.64s-13.14-13.15-16.89-16.9a7.9 7.9 0 0 1 0-11.27c2.5-2.5 6.25-3.75 10 0z" fill="#ffe9cf" stroke="#898071" stroke-miterlimit="10"/><path d="m103.93 211.42s6.66-8.88 10.64-14 5.43-11.42.26-15.42-11.69-.2-14.36 3.61-10.77 13.92-14.64 20.39c-5.35 8.9-6.87 21.73 3.33 33.47s21.91 10.74 27.11 10.75c2.94 0 2.62-1.24 2.62-1.24l-8.34-46-6.25 7.82-.37.63z" fill="#ffe9cf" stroke="#898071" stroke-miterlimit="10"/><path d="m311.84 141.06a16.06 16.06 0 1 1 -16.06 16.06 16.06 16.06 0 0 1 16.06-16.06z" fill="#fff"/><path d="m318.94 154.49a6.73 6.73 0 0 0 -13.45 0 6.5 6.5 0 0 0 1.42 4.06l4.17 7.42h.05a1.13 1.13 0 0 0 2.22 0h.05l4.17-7.42a6.51 6.51 0 0 0 1.37-4.06zm-6.73 2.85a2.84 2.84 0 1 1 2.88-2.84 2.86 2.86 0 0 1 -2.88 2.84z" fill="#0cc1b8"/></g></svg>