<svg viewBox="0 0 415.42 264.35" xmlns="http://www.w3.org/2000/svg"><g fill-rule="evenodd"><path d="m0 .16h415v263.84h-415z" fill="#f44f85"/><path d="m415 208.15v-39.81h-2.69v-21.15h-2.7v-2.48h-13.46v2.48h-5.38l1.34 2.49v11.2h-20.19v1.24l1.34 1.24v14.93h-4v-49.76h-9.46v-3.73l-2.69-2.48h-4v2.48h-5.39v3.73h-4v32.35h-4.94v-38.56l3.14-2.91h-7.63v-20.73l1.35-2.49h-5.39l-1.41-1.19h-1.35l-1.35-16.17-1.34 16.17h-1.35l-1.35 1.24h-4.88l.85 2.49v19.9h-2.7v1.25h-3.11v1.43l1.77 1.06v51h-4v-33.9l-4-.93-2.69-3.11h-17.59l-3 2.8-3.7.31v41h-4v-30.93h-6.42v-7.61h-12.49v28.61h-5.34v-72.2l-17.55-12.41-10.77 12.44v72.14h-5.39v-32.34h1.35l1.34-3.73h-4v-2.51h-8.78v2.49h-14.14v2.51h2.69v41.05h-5.38v-16.17l3.36-3.11v-4.36h-19.53v-12.41h4v-3.73h-6.73v-3.73h-12.07v3.65h-9.42v2.57h4v21.15h-9.43v-59.74l-28.27 12.44v62.19h-5.39v-14.92h-8.07v26.12h-14.77v-43.54h-33.66v48.54h-42.19v16.18s403-.18 403-.03z" fill="#9b004e" opacity=".17"/><path d="m0 208.59v-42.31h3v-22.47h3v-2.65h15v2.65h6l-1.5 2.64v11.9h22.42v1.32l-1.5 1.33v15.87h4.5v-52.87h10.48v-4l3-2.64h4.5v2.64h6v4h4.49v34.37h5.49v-41l-3.49-3.09h8.48v-22l-1.51-2.68h6l1.49-1.32h1.5l1.5-17.19 1.5 17.19h1.49l1.5 1.32h5.44l-1 2.65v21.15h3v1.32h3.46v1.53l-2 1.12v54.2h4.49v-36l4.49-1 3-3.3h19.46l3.37 3 4.12.33v43.63h4.49v-32.92h7.15v-8.11h13.82v30.4h5.94v-76.71l19.6-13.19v7.94l12 5.28v76.68h6v-34.37h-1.5l-1.5-4h4.5v-2.64h9.73v2.64h15.7v2.65h-3v43.63h6v-17.16l-3.75-3.35v-4.62h21.71v-13.18h-4.49v-4h7.49v-4h13.47v3.88h10.47v2.73h-4.5v22.48h10.5v-63.4l31.45 13.22v66.1h6v-15.86h9v27.76h16.45v-46.27h37.44v51.56h13.66v17.19s-415-.19-415 0z" fill="#ce2566"/><path d="m69.53 23.19c-5.25-5.93-15-5.88-16.19-5.86s-10.73-.46-16.34 5.85c-6.22 7-1.92 19 4.68 27.64 5.48 7.11 7.32 9.31 7.32 9.31h8.61s1.65-2.2 7.27-9.31c6.7-8.49 10.87-20.62 4.65-27.63z" fill="#10bbe8"/><path d="m50.62 68h5.38l1.28-5.13h-7.72zm4.21-50.7h-3.26s-13.37 3.42-11.14 19.25c.81 5.78 3.92 11.9 5.78 16.26 2.42 5.7 4 7.32 4 7.32h1.87s-3.94-14.31-4.26-24.86a31.17 31.17 0 0 1 5.38-17.83 31.17 31.17 0 0 1 5.41 17.83c-.32 10.55-4.26 24.86-4.26 24.86h1.87s1.7-1.67 4.12-7.32c1.88-4.37 4.85-10.43 5.67-16.26 2.23-15.83-11.18-19.23-11.18-19.23z" fill="#ffbf31"/><path d="m379.07 161.87h-81.74a1.2 1.2 0 0 0 -1.24 1.15v99.84a1.2 1.2 0 0 0 1.24 1.16h81.74a1.21 1.21 0 0 0 1.24-1.16v-99.86a1.2 1.2 0 0 0 -1.24-1.13zm-19.37 96.13a.82.82 0 0 1 -.82.82h-54.17a.83.83 0 0 1 -.83-.82v-84.43a.83.83 0 0 1 .83-.83h54.17a.83.83 0 0 1 .82.83z" fill="#374246"/><path d="m371.18 171.85h-66.18a.77.77 0 0 0 -.73.79v89.77a.76.76 0 0 0 .73.79h66.22a.75.75 0 0 0 .72-.79v-89.77a.76.76 0 0 0 -.76-.79zm-36.93-2.91h9.82a.55.55 0 0 0 .55-.55v-.39a.55.55 0 0 0 -.55-.54h-9.82a.55.55 0 0 0 -.55.54v.36a.55.55 0 0 0 .55.58z" fill="#ffbf31"/><path d="m345.66 244.18h-35.29v4.93h35.29zm-35.29 13.13h53.34v-4.92h-53.34zm35.29-60.72h-35.29v4.92h35.29zm-35.29 8.2v4.93h53.34v-4.93zm0 13.54h53.34v-4.92h-53.34z" fill="#ff8533" opacity=".62"/><path d="m394.36 240.33v-20.54a1.36 1.36 0 0 0 -1.36-1.36h-60.23a1.35 1.35 0 0 0 -1.35 1.36v24.37a1.35 1.35 0 0 0 1.35 1.36h55.58l4.27 3.18c.29.29 1.16.87 1.45.58a1.43 1.43 0 0 0 .29-.87zm-59.42-35.53v-24.35a1.35 1.35 0 0 0 -1.35-1.36h-60.23a1.36 1.36 0 0 0 -1.36 1.36v28.62a1.43 1.43 0 0 0 .29.87c.29.29 1.17-.29 1.46-.58l4.27-3.2h55.57a1.35 1.35 0 0 0 1.35-1.36z" fill="#fff"/><path d="m381.61 228.71h-40.08a.76.76 0 0 0 -.77.77.76.76 0 0 0 .77.77h40.08a.77.77 0 0 0 .78-.77.77.77 0 0 0 -.78-.77zm0 5.82h-40.08a.78.78 0 0 0 0 1.55h40.08a.78.78 0 1 0 0-1.55z" fill="#0fbfdb"/><path d="m324.7 188.66h-40.08a.77.77 0 0 0 -.78.77.77.77 0 0 0 .78.77h40.08a.76.76 0 0 0 .77-.77.76.76 0 0 0 -.77-.77zm0 5.82h-40.09a.78.78 0 0 0 0 1.55h40.09a.78.78 0 0 0 0-1.55z" fill="#0fbfdb"/><path d="m380.47 137.15a18 18 0 1 1 -18 18 18 18 0 0 1 18-18z" fill="#fff"/><path d="m388.41 152.18a7.53 7.53 0 0 0 -15.05 0 7.27 7.27 0 0 0 1.6 4.54l4.67 8.3h.05a1.27 1.27 0 0 0 2.49 0h.05l4.67-8.3a7.32 7.32 0 0 0 1.52-4.54zm-7.52 3.19a3.18 3.18 0 1 1 3.22-3.18 3.2 3.2 0 0 1 -3.22 3.18z" fill="#f44f85"/><path d="m145.6 191.3a14.42 14.42 0 1 1 -14.42 14.42 14.43 14.43 0 0 1 14.42-14.42z" fill="#fff"/><path d="m152 203.36a6 6 0 0 0 -12.08 0 5.8 5.8 0 0 0 1.28 3.64l3.75 6.67a1 1 0 0 0 2 0l3.75-6.67a5.8 5.8 0 0 0 1.3-3.64zm-6 2.56a2.55 2.55 0 1 1 2.59-2.55 2.57 2.57 0 0 1 -2.66 2.55z" fill="#0cc1b8"/></g><g fill="#fff"><circle cx="158.31" cy="141.84" r="19.49"/><circle cx="241.81" cy="105.03" r="17.54"/><circle cx="259.77" cy="160.7" r="15.68"/><circle cx="236.42" cy="43.08" r="9.88"/><circle cx="186.59" cy="74.95" r="15.33"/><circle cx="277.72" cy="59.24" r="12.57"/><circle cx="313.63" cy="110.42" r="14.37"/></g><g fill="none" stroke="#fff" stroke-miterlimit="10" stroke-width="2"><path d="m173.58 139.15 60.15-28.73"/><path d="m243.6 103.24 34.12-44"/><path d="m259.77 160.7 53.86-50.28"/><path d="m73.31 166.79 28.92-50.38"/><path d="m244.6 106.93 69.03 3.49"/></g><path d="m130 46.66a15.71 15.71 0 1 1 -15.71 15.71 15.71 15.71 0 0 1 15.71-15.71z" fill="#fff" fill-rule="evenodd"/><path d="m121.28 48.62-1.57-5.56-1.58 5.56-4.71 1.85 4.71 1.85 1.58 5.56 1.57-5.56 4.72-1.85zm-18.86-13.62-2.19 7.92-6.56 2.63 6.56 2.64 2.19 7.91 2.19-7.91 6.57-2.64-6.57-2.63z" fill="#ffbf31"/><path d="m166.39 146.33 93.38 14.37" fill="none" stroke="#fff" stroke-miterlimit="10" stroke-width="2"/><g fill="#fff"><circle cx="102.37" cy="114.66" r="12.32"/><circle cx="74.58" cy="164" r="15.67"/><circle cx="75.31" cy="80.15" r="9.47"/></g><g fill="none" stroke="#fff" stroke-miterlimit="10" stroke-width="2"><path d="m153.8 140.37-45.34-21.65"/><path d="m101.02 113.31-25.71-33.16"/><path d="m159.21 145.78-84.03 21.01"/></g><circle cx="216.35" cy="197.16" fill="#fff" r="14.51"/><g fill="none" stroke="#fff" stroke-miterlimit="10" stroke-width="2"><path d="m156.52 147.23 56.73 48.48"/><path d="m161.07 129.65 25.07-55.15"/><path d="m158.31 141.84-26.93-79.01"/><path d="m148.44 193.91 9.87-54.76"/><path d="m189.59 72.84 45.04-27.96"/><path d="m241.81 105.03-52.97-30.38"/></g><g fill-rule="evenodd"><path d="m161.47 141.73a5.56 5.56 0 1 0 -6.26 0c-6.13 1.8-6.13 8.83-6.13 8.83h18.51s0-7.03-6.12-8.83z" fill="#828282"/><path d="m104.91 114.38a3.65 3.65 0 1 0 -4.11 0c-4 1.19-4 5.8-4 5.8h12.15s-.02-4.61-4.04-5.8z" fill="#07bcff"/><path d="m77.06 79.85a2.85 2.85 0 1 0 -3.22 0c-3.14.92-3.14 4.53-3.14 4.53h9.5s0-3.61-3.14-4.53z" fill="#828282"/><path d="m317.7 109.62a4.45 4.45 0 1 0 -5 0c-4.91 1.45-4.91 7.08-4.91 7.08h14.84s-.02-5.63-4.93-7.08z" fill="#07bcff"/><path d="m77.8 163.28a4.94 4.94 0 1 0 -5.57 0c-5.45 1.61-5.45 7.86-5.45 7.86h16.48s0-6.25-5.46-7.86z" fill="#f3663a"/><path d="m218.82 196.9a4.35 4.35 0 1 0 -4.89 0c-4.79 1.41-4.79 6.9-4.79 6.9h14.46s0-5.49-4.78-6.9z" fill="#f44f85"/><path d="m244.83 104.78a5.31 5.31 0 1 0 -6 0c-5.85 1.72-5.85 8.44-5.85 8.44h17.68s.02-6.72-5.83-8.44z" fill="#ff8533"/><path d="m190.09 74.14a5.15 5.15 0 1 0 -5.8 0c-5.69 1.68-5.69 8.2-5.69 8.2h17.18s0-6.52-5.69-8.2z" fill="#f44f85"/><path d="m238 41.83a2.76 2.76 0 1 0 -3.11 0c-3 .9-3 4.39-3 4.39h9.11s0-3.49-3-4.39z" fill="#828282"/><path d="m280 59.05a4.08 4.08 0 1 0 -4.59 0c-4.41 1.32-4.41 6.48-4.41 6.48h13.57s-.04-5.16-4.57-6.48z" fill="#4ac1c0"/><path d="m263 160.42a5.71 5.71 0 1 0 -6.43 0c-6.28 1.86-6.29 9.07-6.29 9.07h19s.02-7.21-6.28-9.07z" fill="#4ac1c0"/><path d="m134.48 58.09a6.16 6.16 0 0 0 -4.26 1.91 6.26 6.26 0 0 0 -4.31-1.86c-3.07 0-4.59 4.41-1.53 7.46 2.8 2.8 5.84 5.59 5.84 5.59s3-2.79 5.78-5.59c3-3.12 1.52-7.51-1.52-7.51z" fill="#f44f85"/></g></svg>